<svg xmlns="http://www.w3.org/2000/svg" version="1" viewBox="0 0 700 700"><g fill="#3f51b4"><path d="M97 188l-3 4-1 2-1 145-1 144-29 1H37l-1 11v12l4 4 4 4h308l308-1 3-3 3-3v-24h-27l-29-1-1-144c0-154 0-147-5-151-2-2-5-2-252-3H101l-4 3zm256 5l1 4c0 2-1 2-4 2s-4 0-4-2c0-3 2-5 4-5l3 1zm232 16c2 1 2 3 2 127l-1 127H114l-1-127c0-119 0-126 2-127h470zM383 497c2 1 2 2 1 4l-1 3h-32c-29 0-33 0-34-2-2-2-2-3 0-5s3-2 33-2c29 0 31 0 33 2z"/><path d="M361 281l-6 19-3 12-4 12-4 12a643 643 0 0 1-18 64l-3 7c-2 4 0 5 9 4 6 0 8-1 9-3l2-5 2-6 2-7 3-11 5-19 5-17 7-23 4-12 3-12 3-10 1-5c-1-2-17-2-18 0zM301 305l-19 9-28 13-35 16c-2 1-2 2-2 9v8l7 3 15 7 14 7a2140 2140 0 0 0 47 22c4 2 4 1 4-8v-9l-7-4a783 783 0 0 0-19-8l-8-4-8-3-10-4c-7-3-11-6-11-7l6-4 9-3 8-4 18-8 9-4 5-2 5-2c2 0 3-3 3-12l-1-9-2 1zM393 305v18l3 2 6 2 8 3 8 4 8 3 13 6c19 8 20 9 15 11-2 2-4 3-17 8l-13 6-8 3-4 1-9 5c-11 4-11 4-11 13l1 9c1 1 3 0 6-2l9-4 10-4 13-6a512 512 0 0 0 40-19l9-4-1-8v-8l-4-2-24-11a307 307 0 0 1-22-10l-10-5a2613 2613 0 0 1-26-11z"/></g></svg>